<?xml version="1.0" encoding="UTF-8"?>
<svg version="1.1" xmlns="http://www.w3.org/2000/svg" width="202" height="249">
<path d="M0 0 C66.66 0 133.32 0 202 0 C202 82.17 202 164.34 202 249 C135.34 249 68.68 249 0 249 C0 166.83 0 84.66 0 0 Z " fill="#FEFEFE" transform="translate(0,0)"/>
<path d="M0 0 C1.36560059 0.00303635 1.36560059 0.00303635 2.75878906 0.00613403 C3.68723633 0.00517731 4.61568359 0.00422058 5.57226562 0.00323486 C7.53938871 0.00255298 9.50651403 0.00440781 11.47363281 0.00857544 C14.49581932 0.01392358 17.51785721 0.00863071 20.54003906 0.00222778 C22.44628939 0.00288856 24.35253963 0.00416972 26.25878906 0.00613403 C27.16918945 0.0041098 28.07958984 0.00208557 29.01757812 0 C35.39383938 0.02399685 35.39383938 0.02399685 36.50878906 1.13894653 C36.53265 3.27696268 36.49753784 5.41567561 36.43847656 7.55300903 C36.42656217 9.58441356 36.41479063 11.61582193 36.40722656 13.64724731 C36.39171701 15.0479534 36.35844988 16.44858567 36.30664062 17.84841919 C36.14777124 22.43930916 36.22632326 26.68160773 37.50878906 31.13894653 C40.76501762 34.41380922 44.37881134 36.16036815 48.50878906 38.13894653 C51.48144531 40.61550903 51.48144531 40.61550903 53.57128906 42.76394653 C54.28414063 43.47808716 54.99699219 44.19222778 55.73144531 44.92800903 C57.60309229 47.2562556 58.46355325 49.36179431 59.50878906 52.13894653 C61.04587524 52.13109131 61.04587524 52.13109131 62.61401367 52.12307739 C66.40274182 52.10502685 70.19146615 52.09351434 73.98022461 52.08401489 C75.62248371 52.07897479 77.2647383 52.07214275 78.90698242 52.06350708 C81.26254385 52.05142728 83.61804615 52.04571515 85.97363281 52.04129028 C86.71218002 52.036129 87.45072723 52.03096771 88.21165466 52.02565002 C89.97776994 52.02545403 91.74376052 52.07699935 93.50878906 52.13894653 C95.40502108 54.03517855 94.63776532 56.80265013 94.6477356 59.32522583 C94.64469925 60.62520508 94.64469925 60.62520508 94.64160156 61.95144653 C94.64255829 62.83550171 94.64351501 63.71955688 94.64450073 64.63040161 C94.64518258 66.50336783 94.64332799 68.37633639 94.63916016 70.2492981 C94.63381195 73.12663041 94.639105 76.00380661 94.64550781 78.88113403 C94.64484703 80.69623855 94.64356587 82.51134296 94.64160156 84.32644653 C94.64362579 85.19309937 94.64565002 86.0597522 94.6477356 86.95266724 C94.62373916 93.02399644 94.62373916 93.02399644 93.50878906 94.13894653 C91.2366585 94.16284972 88.96387339 94.12761899 86.69238281 94.06863403 C85.27378349 94.0577207 83.85515656 94.05001512 82.43652344 94.04519653 C80.19814913 94.03737432 77.96635871 94.01464492 75.72924805 93.9367981 C66.61801204 93.47025136 66.61801204 93.47025136 58.82861328 97.52932739 C56.82757024 100.31538789 55.18639011 103.15195937 53.50878906 106.13894653 C47.85942644 112.57326039 41.34987296 115.21840458 33.50878906 119.13894653 C33.17878906 133.98894653 32.84878906 148.83894653 32.50878906 164.13894653 C33.82878906 164.46894653 35.14878906 164.79894653 36.50878906 165.13894653 C36.53344528 169.39309276 36.55162805 173.64720151 36.5637207 177.90139771 C36.56876007 179.34964726 36.57559159 180.7978917 36.58422852 182.24612427 C36.59631153 184.32369241 36.60202118 186.4011935 36.60644531 188.47879028 C36.61168213 189.7303894 36.61691895 190.98198853 36.62231445 192.27151489 C36.50878906 195.13894653 36.50878906 195.13894653 35.50878906 196.13894653 C32.40627706 196.22768788 29.32610786 196.25413108 26.22363281 196.23660278 C25.29281387 196.23518784 24.36199493 196.23377289 23.40296936 196.23231506 C20.41737715 196.22669825 17.43185877 196.21414293 14.44628906 196.20144653 C12.42740993 196.1964337 10.40852963 196.19187042 8.38964844 196.18777466 C3.42933335 196.17672336 -1.53092626 196.15944749 -6.49121094 196.13894653 C-7.92630314 193.26876212 -7.60279599 190.80350931 -7.58886719 187.59988403 C-7.58564453 186.29793091 -7.58242187 184.99597778 -7.57910156 183.65457153 C-7.5707456 182.27436254 -7.56228064 180.89415421 -7.55371094 179.51394653 C-7.54869595 178.12592728 -7.54413304 176.73790631 -7.54003906 175.34988403 C-7.5282207 171.94619521 -7.51174528 168.54259215 -7.49121094 165.13894653 C-5.84121094 164.80894653 -4.19121094 164.47894653 -2.49121094 164.13894653 C-2.82121094 149.28894653 -3.15121094 134.43894653 -3.49121094 119.13894653 C-9.92621094 115.67394653 -9.92621094 115.67394653 -16.49121094 112.13894653 C-19.80761719 109.51394653 -19.80761719 109.51394653 -22.05371094 107.13894653 C-22.818125 106.35519653 -23.58253906 105.57144653 -24.37011719 104.76394653 C-26.49121094 102.13894653 -26.49121094 102.13894653 -28.16625977 98.52688599 C-29.15729795 96.6480202 -29.15729795 96.6480202 -30.49121094 95.13894653 C-33.91298044 94.11815791 -33.91298044 94.11815791 -37.81152344 94.30691528 C-38.51139374 94.29936722 -39.21126404 94.29181915 -39.93234253 94.28404236 C-42.16161641 94.26555551 -44.38714812 94.29395641 -46.61621094 94.32644653 C-48.85148051 94.33245145 -51.0862668 94.32869635 -53.32150269 94.31529236 C-55.34439194 94.30728019 -57.36733406 94.32634977 -59.39013672 94.34671021 C-62.49121094 94.13894653 -62.49121094 94.13894653 -64.49121094 92.13894653 C-64.69111321 89.29354511 -64.77098069 86.5475687 -64.75683594 83.70144653 C-64.75874939 82.86557007 -64.76066284 82.0296936 -64.76263428 81.16848755 C-64.76399629 79.39984842 -64.7602987 77.63119931 -64.75195312 75.86257935 C-64.74125369 73.1497866 -64.7518477 70.4376561 -64.76464844 67.72488403 C-64.76332685 66.00873673 -64.76076446 64.29258985 -64.75683594 62.57644653 C-64.7608844 61.7618396 -64.76493286 60.94723267 -64.769104 60.10794067 C-64.72113022 54.36886581 -64.72113022 54.36886581 -62.49121094 52.13894653 C-60.07759575 52.01542246 -57.76752853 52.00688612 -55.35839844 52.07644653 C-53.89747381 52.08539008 -52.43653202 52.09181788 -50.97558594 52.09597778 C-48.67654938 52.11016333 -46.38197533 52.13845073 -44.08398438 52.21072388 C-34.88346548 52.69434241 -34.88346548 52.69434241 -26.81933594 48.98660278 C-24.70888466 46.39990038 -24.70888466 46.39990038 -23.11181641 43.68191528 C-19.70532861 38.33663404 -14.10063698 34.88068166 -8.49121094 32.13894653 C-8.45362671 30.73817871 -8.45362671 30.73817871 -8.4152832 29.30911255 C-8.32034166 25.85569464 -8.22109836 22.40245694 -8.11889648 18.94924927 C-8.0754928 17.45255384 -8.03382181 15.95580715 -7.99389648 14.45901489 C-7.93632478 12.31180341 -7.87259378 10.16485132 -7.80761719 8.01785278 C-7.77095947 6.72435913 -7.73430176 5.43086548 -7.6965332 4.09817505 C-7.32430916 -1.26654264 -4.78433027 0.01800567 0 0 Z " fill="#FAF9FA" transform="translate(85.4912109375,22.861053466796875)"/>
<path d="M0 0 C1.36560059 0.00303635 1.36560059 0.00303635 2.75878906 0.00613403 C3.68723633 0.00517731 4.61568359 0.00422058 5.57226562 0.00323486 C7.53938871 0.00255298 9.50651403 0.00440781 11.47363281 0.00857544 C14.49581932 0.01392358 17.51785721 0.00863071 20.54003906 0.00222778 C22.44628939 0.00288856 24.35253963 0.00416972 26.25878906 0.00613403 C27.16918945 0.0041098 28.07958984 0.00208557 29.01757812 0 C35.39383938 0.02399685 35.39383938 0.02399685 36.50878906 1.13894653 C36.53265 3.27696268 36.49753784 5.41567561 36.43847656 7.55300903 C36.42656217 9.58441356 36.41479063 11.61582193 36.40722656 13.64724731 C36.39171701 15.0479534 36.35844988 16.44858567 36.30664062 17.84841919 C36.14777124 22.43930916 36.22632326 26.68160773 37.50878906 31.13894653 C40.76501762 34.41380922 44.37881134 36.16036815 48.50878906 38.13894653 C51.48144531 40.61550903 51.48144531 40.61550903 53.57128906 42.76394653 C54.28414063 43.47808716 54.99699219 44.19222778 55.73144531 44.92800903 C57.60309229 47.2562556 58.46355325 49.36179431 59.50878906 52.13894653 C61.04587524 52.13109131 61.04587524 52.13109131 62.61401367 52.12307739 C66.40274182 52.10502685 70.19146615 52.09351434 73.98022461 52.08401489 C75.62248371 52.07897479 77.2647383 52.07214275 78.90698242 52.06350708 C81.26254385 52.05142728 83.61804615 52.04571515 85.97363281 52.04129028 C86.71218002 52.036129 87.45072723 52.03096771 88.21165466 52.02565002 C89.97776994 52.02545403 91.74376052 52.07699935 93.50878906 52.13894653 C95.40502108 54.03517855 94.63776532 56.80265013 94.6477356 59.32522583 C94.64469925 60.62520508 94.64469925 60.62520508 94.64160156 61.95144653 C94.64255829 62.83550171 94.64351501 63.71955688 94.64450073 64.63040161 C94.64518258 66.50336783 94.64332799 68.37633639 94.63916016 70.2492981 C94.63381195 73.12663041 94.639105 76.00380661 94.64550781 78.88113403 C94.64484703 80.69623855 94.64356587 82.51134296 94.64160156 84.32644653 C94.64362579 85.19309937 94.64565002 86.0597522 94.6477356 86.95266724 C94.62373916 93.02399644 94.62373916 93.02399644 93.50878906 94.13894653 C91.2366585 94.16284972 88.96387339 94.12761899 86.69238281 94.06863403 C85.27378349 94.0577207 83.85515656 94.05001512 82.43652344 94.04519653 C80.19814913 94.03737432 77.96635871 94.01464492 75.72924805 93.9367981 C66.61801204 93.47025136 66.61801204 93.47025136 58.82861328 97.52932739 C56.82757024 100.31538789 55.18639011 103.15195937 53.50878906 106.13894653 C47.85942644 112.57326039 41.34987296 115.21840458 33.50878906 119.13894653 C33.17878906 133.98894653 32.84878906 148.83894653 32.50878906 164.13894653 C33.82878906 164.46894653 35.14878906 164.79894653 36.50878906 165.13894653 C36.53344528 169.39309276 36.55162805 173.64720151 36.5637207 177.90139771 C36.56876007 179.34964726 36.57559159 180.7978917 36.58422852 182.24612427 C36.59631153 184.32369241 36.60202118 186.4011935 36.60644531 188.47879028 C36.61168213 189.7303894 36.61691895 190.98198853 36.62231445 192.27151489 C36.50878906 195.13894653 36.50878906 195.13894653 35.50878906 196.13894653 C32.40627706 196.22768788 29.32610786 196.25413108 26.22363281 196.23660278 C25.29281387 196.23518784 24.36199493 196.23377289 23.40296936 196.23231506 C20.41737715 196.22669825 17.43185877 196.21414293 14.44628906 196.20144653 C12.42740993 196.1964337 10.40852963 196.19187042 8.38964844 196.18777466 C3.42933335 196.17672336 -1.53092626 196.15944749 -6.49121094 196.13894653 C-7.92630314 193.26876212 -7.60279599 190.80350931 -7.58886719 187.59988403 C-7.58564453 186.29793091 -7.58242187 184.99597778 -7.57910156 183.65457153 C-7.5707456 182.27436254 -7.56228064 180.89415421 -7.55371094 179.51394653 C-7.54869595 178.12592728 -7.54413304 176.73790631 -7.54003906 175.34988403 C-7.5282207 171.94619521 -7.51174528 168.54259215 -7.49121094 165.13894653 C-5.84121094 164.80894653 -4.19121094 164.47894653 -2.49121094 164.13894653 C-2.82121094 149.28894653 -3.15121094 134.43894653 -3.49121094 119.13894653 C-9.92621094 115.67394653 -9.92621094 115.67394653 -16.49121094 112.13894653 C-19.87792969 109.40847778 -19.87792969 109.40847778 -22.17871094 106.95144653 C-23.36013672 105.7236145 -23.36013672 105.7236145 -24.56542969 104.47097778 C-26.27230835 102.40402736 -27.43817842 100.58851414 -28.49121094 98.13894653 C-27.50121094 98.13894653 -26.51121094 98.13894653 -25.49121094 98.13894653 C-24.05371094 99.86160278 -24.05371094 99.86160278 -22.49121094 102.20144653 C-17.4032909 109.06472591 -10.42197102 113.17564809 -2.49121094 116.13894653 C-2.52441099 113.73948846 -2.59172755 111.34906546 -2.67871094 108.95144653 C-2.68451172 108.27791138 -2.6903125 107.60437622 -2.69628906 106.91043091 C-2.873155 102.88181797 -3.38927533 101.25836574 -6.04199219 98.15066528 C-7.25435547 97.1548645 -7.25435547 97.1548645 -8.49121094 96.13894653 C-6.32246842 96.64498645 -4.49153467 97.13878467 -2.49121094 98.13894653 C-2.49121094 94.83894653 -2.49121094 91.53894653 -2.49121094 88.13894653 C-5.79121094 88.13894653 -9.09121094 88.13894653 -12.49121094 88.13894653 C-12.49121094 87.80894653 -12.49121094 87.47894653 -12.49121094 87.13894653 C-8.86121094 87.13894653 -5.23121094 87.13894653 -1.49121094 87.13894653 C-1.49121094 120.46894653 -1.49121094 153.79894653 -1.49121094 188.13894653 C9.39878906 188.13894653 20.28878906 188.13894653 31.50878906 188.13894653 C31.50878906 154.80894653 31.50878906 121.47894653 31.50878906 87.13894653 C49.98878906 87.13894653 68.46878906 87.13894653 87.50878906 87.13894653 C87.50878906 77.56894653 87.50878906 67.99894653 87.50878906 58.13894653 C69.02878906 58.13894653 50.54878906 58.13894653 31.50878906 58.13894653 C31.46753906 49.62082153 31.42628906 41.10269653 31.38378906 32.32644653 C31.36558105 29.63899292 31.34737305 26.95153931 31.32861328 24.18264771 C31.32277319 22.0574056 31.31767649 19.93216126 31.31347656 17.80691528 C31.30324463 16.69948975 31.2930127 15.59206421 31.2824707 14.45108032 C31.28210815 12.86801086 31.28210815 12.86801086 31.28173828 11.25296021 C31.27729706 10.33584763 31.27285583 9.41873505 31.26828003 8.47383118 C31.50878906 6.13894653 31.50878906 6.13894653 33.50878906 3.13894653 C20.96878906 3.13894653 8.42878906 3.13894653 -4.49121094 3.13894653 C-4.49121094 12.04894653 -4.49121094 20.95894653 -4.49121094 30.13894653 C-3.83121094 30.13894653 -3.17121094 30.13894653 -2.49121094 30.13894653 C-2.49121094 22.21894653 -2.49121094 14.29894653 -2.49121094 6.13894653 C-2.16121094 6.13894653 -1.83121094 6.13894653 -1.49121094 6.13894653 C-1.49121094 19.66894653 -1.49121094 33.19894653 -1.49121094 47.13894653 C-1.82121094 47.13894653 -2.15121094 47.13894653 -2.49121094 47.13894653 C-2.49121094 42.18894653 -2.49121094 37.23894653 -2.49121094 32.13894653 C-14.73849757 38.26258985 -22.98509413 44.98278092 -29.49121094 57.13894653 C-24.21121094 57.13894653 -18.93121094 57.13894653 -13.49121094 57.13894653 C-13.49121094 57.46894653 -13.49121094 57.79894653 -13.49121094 58.13894653 C-27.68121094 58.13894653 -41.87121094 58.13894653 -56.49121094 58.13894653 C-56.49121094 67.70894653 -56.49121094 77.27894653 -56.49121094 87.13894653 C-48.57121094 87.13894653 -40.65121094 87.13894653 -32.49121094 87.13894653 C-32.49121094 87.46894653 -32.49121094 87.79894653 -32.49121094 88.13894653 C-40.74121094 88.13894653 -48.99121094 88.13894653 -57.49121094 88.13894653 C-57.49121094 77.90894653 -57.49121094 67.67894653 -57.49121094 57.13894653 C-48.91121094 57.13894653 -40.33121094 57.13894653 -31.49121094 57.13894653 C-31.49121094 56.47894653 -31.49121094 55.81894653 -31.49121094 55.13894653 C-41.39121094 55.13894653 -51.29121094 55.13894653 -61.49121094 55.13894653 C-61.49121094 67.01894653 -61.49121094 78.89894653 -61.49121094 91.13894653 C-51.92121094 91.13894653 -42.35121094 91.13894653 -32.49121094 91.13894653 C-32.16121094 91.79894653 -31.83121094 92.45894653 -31.49121094 93.13894653 C-36.03018799 93.16360046 -40.56912637 93.18178442 -45.1081543 93.19387817 C-46.65340859 93.19891793 -48.1986581 93.20574973 -49.74389648 93.21438599 C-51.96046122 93.22646729 -54.17696312 93.23217826 -56.39355469 93.23660278 C-57.43575417 93.24434471 -57.43575417 93.24434471 -58.49900818 93.25224304 C-60.16350424 93.2524393 -61.82786592 93.20083782 -63.49121094 93.13894653 C-65.56122414 91.06893334 -64.65530789 86.65128729 -64.65917969 83.79910278 C-64.66250809 82.96181137 -64.66583649 82.12451996 -64.66926575 81.26185608 C-64.6743385 79.48724926 -64.67667397 77.71263286 -64.67651367 75.9380188 C-64.67869891 73.21642397 -64.69684727 70.49523511 -64.71582031 67.77371216 C-64.71875436 66.05301043 -64.72073908 64.33230676 -64.72167969 62.61160278 C-64.7288652 61.7938588 -64.73605072 60.97611481 -64.74345398 60.1335907 C-64.72003297 54.36776857 -64.72003297 54.36776857 -62.49121094 52.13894653 C-60.07759575 52.01542246 -57.76752853 52.00688612 -55.35839844 52.07644653 C-53.89747381 52.08539008 -52.43653202 52.09181788 -50.97558594 52.09597778 C-48.67654938 52.11016333 -46.38197533 52.13845073 -44.08398438 52.21072388 C-34.88346548 52.69434241 -34.88346548 52.69434241 -26.81933594 48.98660278 C-24.70888466 46.39990038 -24.70888466 46.39990038 -23.11181641 43.68191528 C-19.70532861 38.33663404 -14.10063698 34.88068166 -8.49121094 32.13894653 C-8.45362671 30.73817871 -8.45362671 30.73817871 -8.4152832 29.30911255 C-8.32034166 25.85569464 -8.22109836 22.40245694 -8.11889648 18.94924927 C-8.0754928 17.45255384 -8.03382181 15.95580715 -7.99389648 14.45901489 C-7.93632478 12.31180341 -7.87259378 10.16485132 -7.80761719 8.01785278 C-7.77095947 6.72435913 -7.73430176 5.43086548 -7.6965332 4.09817505 C-7.32430916 -1.26654264 -4.78433027 0.01800567 0 0 Z " fill="#040945" transform="translate(85.4912109375,22.861053466796875)"/>
<path d="M0 0 C12.54 0 25.08 0 38 0 C38 8.91 38 17.82 38 27 C37.67 27 37.34 27 37 27 C36.67 19.41 36.34 11.82 36 4 C25.44 4 14.88 4 4 4 C4.01160156 7.66996094 4.02320313 11.33992188 4.03515625 15.12109375 C4.04294552 18.65893467 4.04902302 22.19677464 4.05493164 25.73461914 C4.05997356 28.20142033 4.06680691 30.66821852 4.07543945 33.13500977 C4.08751125 36.67204529 4.09322956 40.20904145 4.09765625 43.74609375 C4.10281754 44.85649521 4.10797882 45.96689667 4.11329651 47.11094666 C4.11337204 48.13192947 4.11344757 49.15291229 4.11352539 50.20483398 C4.115746 51.10862289 4.11796661 52.0124118 4.12025452 52.94358826 C4 55 4 55 3 56 C1.31198015 56.09353163 -0.37995207 56.11744791 -2.07055664 56.11352539 C-3.15160172 56.11344986 -4.23264679 56.11337433 -5.34645081 56.11329651 C-7.110485 56.10555458 -7.110485 56.10555458 -8.91015625 56.09765625 C-10.10732773 56.0962413 -11.30449921 56.09482635 -12.53794861 56.09336853 C-16.37949066 56.08774979 -20.22097543 56.07519411 -24.0625 56.0625 C-26.65950437 56.05748741 -29.25650965 56.05292409 -31.85351562 56.04882812 C-38.23571716 56.03862313 -44.6177941 56.01905136 -51 56 C-51 64.91 -51 73.82 -51 83 C-32.85 83 -14.7 83 4 83 C4 116.66 4 150.32 4 185 C3.67 185 3.34 185 3 185 C3 151.67 3 118.34 3 84 C1.74050951 85.03406673 1.74050951 85.03406673 1.90234375 87.28515625 C1.91394531 88.20167969 1.92554688 89.11820312 1.9375 90.0625 C1.94652344 90.98160156 1.95554688 91.90070313 1.96484375 92.84765625 C1.97644531 93.55792969 1.98804688 94.26820312 2 95 C0.68 95 -0.64 95 -2 95 C-1.34515625 95.33644531 -0.6903125 95.67289062 -0.015625 96.01953125 C2 98 2 98 2.390625 101.57421875 C2.3641199 102.94585748 2.3165309 104.31721938 2.25 105.6875 C2.23195312 106.38939453 2.21390625 107.09128906 2.1953125 107.81445312 C2.14826213 109.54355436 2.07651873 111.27195205 2 113 C-6.6030553 111.74441896 -13.28700346 106.34118963 -18.5 99.625 C-19.1084375 98.77164063 -19.716875 97.91828125 -20.34375 97.0390625 C-21.916933 94.72935723 -21.916933 94.72935723 -25 94 C-25.33 93.34 -25.66 92.68 -26 92 C-36.56 91.67 -47.12 91.34 -58 91 C-58 90.67 -58 90.34 -58 90 C-43.15 89.505 -43.15 89.505 -28 89 C-37.57 88.67 -47.14 88.34 -57 88 C-57 76.12 -57 64.24 -57 52 C-47.1 52 -37.2 52 -27 52 C-27 52.66 -27 53.32 -27 54 C-35.58 54 -44.16 54 -53 54 C-53 64.23 -53 74.46 -53 85 C-51.68224715 83.90812017 -51.68224715 83.90812017 -51.88647461 81.22436523 C-51.89171143 80.01466064 -51.89694824 78.80495605 -51.90234375 77.55859375 C-51.90556641 76.25341797 -51.90878906 74.94824219 -51.91210938 73.60351562 C-51.92046599 72.2148431 -51.92893095 70.82617123 -51.9375 69.4375 C-51.94251334 68.04492344 -51.94707653 66.65234519 -51.95117188 65.25976562 C-51.96300558 61.83982549 -51.98094169 58.4199075 -52 55 C-43.09 54.67 -34.18 54.34 -25 54 C-24.34 52.35 -23.68 50.7 -23 49 C-17.49273739 40.05508302 -9.5610154 33.30444054 0 29 C0.66 29 1.32 29 2 29 C2 28.34 2 27.68 2 27 C1.34 27 0.68 27 0 27 C0 18.09 0 9.18 0 0 Z " fill="#98A9BE" transform="translate(81,26)"/>
<path d="M0 0 C3.63 0 7.26 0 11 0 C11 33.33 11 66.66 11 101 C21.89 101 32.78 101 44 101 C44 67.67 44 34.34 44 0 C47.96 0 51.92 0 56 0 C56 0.33 56 0.66 56 1 C52.37 1 48.74 1 45 1 C45.495 5.95 45.495 5.95 46 11 C47.65 10.01 49.3 9.02 51 8 C49.63016497 11.16115776 49.0109362 11.9927092 46 14 C45.77862607 16.62697064 45.71837975 19.00893964 45.8125 21.625 C45.82603516 22.33140625 45.83957031 23.0378125 45.85351562 23.765625 C45.8888896 25.51074128 45.94269779 27.25546608 46 29 C47.32 29.33 48.64 29.66 50 30 C48.68 30.66 47.36 31.32 46 32 C45.67 46.85 45.34 61.7 45 77 C46.32 77.33 47.64 77.66 49 78 C49.02465622 82.25414623 49.04283899 86.50825498 49.05493164 90.76245117 C49.05997101 92.21070073 49.06680253 93.65894517 49.07543945 95.10717773 C49.08752247 97.18474588 49.09323211 99.26224697 49.09765625 101.33984375 C49.10289307 102.59144287 49.10812988 103.84304199 49.11352539 105.13256836 C49 108 49 108 48 109 C44.89748799 109.08874135 41.8173188 109.11518455 38.71484375 109.09765625 C37.78402481 109.0962413 36.85320587 109.09482635 35.8941803 109.09336853 C32.90858809 109.08775172 29.92306971 109.0751964 26.9375 109.0625 C24.91862087 109.05748716 22.89974057 109.05292388 20.88085938 109.04882812 C15.92054428 109.03777683 10.96028468 109.02050095 6 109 C4.56490779 106.12981559 4.88841494 103.66456277 4.90234375 100.4609375 C4.90556641 99.15898437 4.90878906 97.85703125 4.91210938 96.515625 C4.92046534 95.13541601 4.92893029 93.75520768 4.9375 92.375 C4.94251499 90.98698074 4.9470779 89.59895978 4.95117188 88.2109375 C4.96299024 84.80724868 4.97946566 81.40364561 5 78 C7.475 77.505 7.475 77.505 10 77 C9.67 62.15 9.34 47.3 9 32 C4.71 29.69 0.42 27.38 -4 25 C-7.38671875 22.26953125 -7.38671875 22.26953125 -9.6875 19.8125 C-10.47511719 18.99394531 -11.26273438 18.17539063 -12.07421875 17.33203125 C-13.78109741 15.26508083 -14.94696749 13.44956761 -16 11 C-15.01 11 -14.02 11 -13 11 C-11.5625 12.72265625 -11.5625 12.72265625 -10 15.0625 C-4.91207996 21.92577937 2.06923992 26.03670156 10 29 C9.96679995 26.60054192 9.89948338 24.21011893 9.8125 21.8125 C9.80669922 21.13896484 9.80089844 20.46542969 9.79492188 19.77148438 C9.61805594 15.74287144 9.10193561 14.11941921 6.44921875 11.01171875 C5.64097656 10.34785156 4.83273438 9.68398437 4 9 C6.16874252 9.50603992 7.99967627 9.99983813 10 11 C10 7.7 10 4.4 10 1 C6.7 1 3.4 1 0 1 C0 0.67 0 0.34 0 0 Z " fill="#314068" transform="translate(73,110)"/>
<path d="M0 0 C1.36560059 0.00303635 1.36560059 0.00303635 2.75878906 0.00613403 C3.68723633 0.00517731 4.61568359 0.00422058 5.57226562 0.00323486 C7.53938871 0.00255298 9.50651403 0.00440781 11.47363281 0.00857544 C14.49581932 0.01392358 17.51785721 0.00863071 20.54003906 0.00222778 C22.44628939 0.00288856 24.35253963 0.00416972 26.25878906 0.00613403 C27.16918945 0.0041098 28.07958984 0.00208557 29.01757812 0 C35.39383938 0.02399685 35.39383938 0.02399685 36.50878906 1.13894653 C36.59718577 3.51463173 36.62409211 5.86103327 36.60644531 8.23660278 C36.60503036 8.94546127 36.60361542 9.65431976 36.60215759 10.38465881 C36.59654349 12.65696366 36.58398869 14.92917129 36.57128906 17.20144653 C36.56627588 18.73855449 36.56171265 20.27566398 36.55761719 21.81277466 C36.54656949 25.58820295 36.52929548 29.36355824 36.50878906 33.13894653 C34.52878906 32.64394653 34.52878906 32.64394653 32.50878906 32.13894653 C32.61707031 33.602677 32.61707031 33.602677 32.72753906 35.09597778 C32.82035156 36.36828247 32.91316406 37.64058716 33.00878906 38.95144653 C33.10160156 40.21601685 33.19441406 41.48058716 33.29003906 42.78347778 C33.61403511 47.75334575 33.15383455 52.22047471 32.50878906 57.13894653 C35.47878906 57.13894653 38.44878906 57.13894653 41.50878906 57.13894653 C41.50878906 57.46894653 41.50878906 57.79894653 41.50878906 58.13894653 C38.20878906 58.13894653 34.90878906 58.13894653 31.50878906 58.13894653 C31.45942266 50.78828924 31.42308533 43.43772803 31.39892578 36.08694458 C31.38885619 33.58529988 31.37519973 31.08366698 31.35791016 28.58206177 C31.33370414 24.99031668 31.3223156 21.39872694 31.31347656 17.80691528 C31.30315399 16.68496262 31.29283142 15.56300995 31.28219604 14.40705872 C31.28204498 13.36620621 31.28189392 12.3253537 31.28173828 11.25296021 C31.27729706 10.33584763 31.27285583 9.41873505 31.26828003 8.47383118 C31.50878906 6.13894653 31.50878906 6.13894653 33.50878906 3.13894653 C20.96878906 3.13894653 8.42878906 3.13894653 -4.49121094 3.13894653 C-4.49121094 12.04894653 -4.49121094 20.95894653 -4.49121094 30.13894653 C-3.83121094 30.13894653 -3.17121094 30.13894653 -2.49121094 30.13894653 C-2.49121094 22.21894653 -2.49121094 14.29894653 -2.49121094 6.13894653 C-2.16121094 6.13894653 -1.83121094 6.13894653 -1.49121094 6.13894653 C-1.49121094 19.66894653 -1.49121094 33.19894653 -1.49121094 47.13894653 C-1.82121094 47.13894653 -2.15121094 47.13894653 -2.49121094 47.13894653 C-2.49121094 42.18894653 -2.49121094 37.23894653 -2.49121094 32.13894653 C-14.73849757 38.26258985 -22.98509413 44.98278092 -29.49121094 57.13894653 C-24.21121094 57.13894653 -18.93121094 57.13894653 -13.49121094 57.13894653 C-13.49121094 57.46894653 -13.49121094 57.79894653 -13.49121094 58.13894653 C-27.68121094 58.13894653 -41.87121094 58.13894653 -56.49121094 58.13894653 C-56.49121094 67.70894653 -56.49121094 77.27894653 -56.49121094 87.13894653 C-48.57121094 87.13894653 -40.65121094 87.13894653 -32.49121094 87.13894653 C-32.49121094 87.46894653 -32.49121094 87.79894653 -32.49121094 88.13894653 C-40.74121094 88.13894653 -48.99121094 88.13894653 -57.49121094 88.13894653 C-57.49121094 77.90894653 -57.49121094 67.67894653 -57.49121094 57.13894653 C-48.91121094 57.13894653 -40.33121094 57.13894653 -31.49121094 57.13894653 C-31.49121094 56.47894653 -31.49121094 55.81894653 -31.49121094 55.13894653 C-41.39121094 55.13894653 -51.29121094 55.13894653 -61.49121094 55.13894653 C-61.49121094 67.01894653 -61.49121094 78.89894653 -61.49121094 91.13894653 C-51.92121094 91.13894653 -42.35121094 91.13894653 -32.49121094 91.13894653 C-32.16121094 91.79894653 -31.83121094 92.45894653 -31.49121094 93.13894653 C-36.03018799 93.16360046 -40.56912637 93.18178442 -45.1081543 93.19387817 C-46.65340859 93.19891793 -48.1986581 93.20574973 -49.74389648 93.21438599 C-51.96046122 93.22646729 -54.17696312 93.23217826 -56.39355469 93.23660278 C-57.43575417 93.24434471 -57.43575417 93.24434471 -58.49900818 93.25224304 C-60.16350424 93.2524393 -61.82786592 93.20083782 -63.49121094 93.13894653 C-65.56122414 91.06893334 -64.65530789 86.65128729 -64.65917969 83.79910278 C-64.66250809 82.96181137 -64.66583649 82.12451996 -64.66926575 81.26185608 C-64.6743385 79.48724926 -64.67667397 77.71263286 -64.67651367 75.9380188 C-64.67869891 73.21642397 -64.69684727 70.49523511 -64.71582031 67.77371216 C-64.71875436 66.05301043 -64.72073908 64.33230676 -64.72167969 62.61160278 C-64.7288652 61.7938588 -64.73605072 60.97611481 -64.74345398 60.1335907 C-64.72003297 54.36776857 -64.72003297 54.36776857 -62.49121094 52.13894653 C-60.07759575 52.01542246 -57.76752853 52.00688612 -55.35839844 52.07644653 C-53.89747381 52.08539008 -52.43653202 52.09181788 -50.97558594 52.09597778 C-48.67654938 52.11016333 -46.38197533 52.13845073 -44.08398438 52.21072388 C-34.88346548 52.69434241 -34.88346548 52.69434241 -26.81933594 48.98660278 C-24.70888466 46.39990038 -24.70888466 46.39990038 -23.11181641 43.68191528 C-19.70532861 38.33663404 -14.10063698 34.88068166 -8.49121094 32.13894653 C-8.45362671 30.73817871 -8.45362671 30.73817871 -8.4152832 29.30911255 C-8.32034166 25.85569464 -8.22109836 22.40245694 -8.11889648 18.94924927 C-8.0754928 17.45255384 -8.03382181 15.95580715 -7.99389648 14.45901489 C-7.93632478 12.31180341 -7.87259378 10.16485132 -7.80761719 8.01785278 C-7.77095947 6.72435913 -7.73430176 5.43086548 -7.6965332 4.09817505 C-7.32430916 -1.26654264 -4.78433027 0.01800567 0 0 Z " fill="#020D44" transform="translate(85.4912109375,22.861053466796875)"/>
<path d="M0 0 C5.54536649 4.45655024 10.78935302 9.24544913 15 15 C15 15.66 15 16.32 15 17 C16.53708618 16.99214478 16.53708618 16.99214478 18.10522461 16.98413086 C21.89395276 16.96608031 25.68267709 16.9545678 29.47143555 16.94506836 C31.11369464 16.94002826 32.75594923 16.93319622 34.39819336 16.92456055 C36.75375479 16.91248074 39.10925709 16.90676861 41.46484375 16.90234375 C42.20339096 16.89718246 42.94193817 16.89202118 43.7028656 16.88670349 C45.46898088 16.8865075 47.23497146 16.93805281 49 17 C50 18 50 18 50.11352539 21.78540039 C50.11336622 23.47282729 50.10766917 25.16025905 50.09765625 26.84765625 C50.0962413 27.7340831 50.09482635 28.62050995 50.09336853 29.53379822 C50.08775215 32.37673254 50.07519691 35.21958931 50.0625 38.0625 C50.05748711 39.98502491 50.05292384 41.90755104 50.04882812 43.83007812 C50.03777741 48.55341549 50.02050183 53.27669458 50 58 C48 56 48 56 47.77294922 52.46826172 C47.77326637 50.95536669 47.78459367 49.44244912 47.8046875 47.9296875 C47.8075174 47.13345978 47.81034729 46.33723206 47.81326294 45.51687622 C47.8244736 42.96943237 47.84957938 40.42233789 47.875 37.875 C47.88502867 36.14974465 47.89415472 34.42448381 47.90234375 32.69921875 C47.92271582 28.46590238 47.96186177 24.23334305 48 20 C38.1 20.33 28.2 20.66 18 21 C30.87 21.495 30.87 21.495 44 22 C44 31.9 44 41.8 44 52 C43.67 52 43.34 52 43 52 C43 42.43 43 32.86 43 23 C38.17568359 23.01740234 38.17568359 23.01740234 33.25390625 23.03515625 C30.11629332 23.04296967 26.9786815 23.04903342 23.84106445 23.05493164 C21.67146311 23.05994003 19.50186511 23.06674863 17.33227539 23.07543945 C14.20197726 23.08765876 11.071724 23.0932634 7.94140625 23.09765625 C6.98166397 23.10281754 6.02192169 23.10797882 5.03309631 23.11329651 C-0.72653655 23.11376923 -6.28682284 22.73941254 -12 22 C-12 13.66666667 -12 5.33333333 -12 -3 C-7.18306023 -4.59149992 -4.0431676 -2.65397668 0 0 Z " fill="#02164E" transform="translate(130,58)"/>
<path d="M0 0 C14.330357 -1.2253987 14.330357 -1.2253987 18.1875 1.60546875 C19.625 3.6875 19.625 3.6875 20.828125 5.9453125 C21.99020581 8.36705916 21.99020581 8.36705916 25.375 10.0625 C29.30341478 14.4585832 28.48138138 19.28663459 28.2109375 24.89453125 C28.14132813 25.91933594 28.07171875 26.94414062 28 28 C17.91177475 26.51216822 10.9469016 19.436425 4.875 11.74609375 C0 4.60625 0 4.60625 0 0 Z " fill="#ECEDF1" transform="translate(55,111)"/>
<path d="M0 0 C11.3615864 2.38516374 19.33043909 10.59585901 25.71484375 19.73046875 C27 22 27 22 27 25 C12.81483935 26.22608832 12.81483935 26.22608832 8.51953125 23.32421875 C6.75 21.1875 6.75 21.1875 5.359375 19.04296875 C4.11629081 16.86238677 4.11629081 16.86238677 1.84375 15.6875 C0 14 0 14 -0.390625 10.64453125 C-0.34421875 9.37996094 -0.2978125 8.11539063 -0.25 6.8125 C-0.21390625 5.54019531 -0.1778125 4.26789062 -0.140625 2.95703125 C-0.09421875 1.98121094 -0.0478125 1.00539062 0 0 Z " fill="#DADAE3" transform="translate(118,55)"/>
<path d="M0 0 C1.36560059 0.00303635 1.36560059 0.00303635 2.75878906 0.00613403 C3.68723633 0.00517731 4.61568359 0.00422058 5.57226562 0.00323486 C7.53938871 0.00255298 9.50651403 0.00440781 11.47363281 0.00857544 C14.49581932 0.01392358 17.51785721 0.00863071 20.54003906 0.00222778 C22.44628939 0.00288856 24.35253963 0.00416972 26.25878906 0.00613403 C27.16918945 0.0041098 28.07958984 0.00208557 29.01757812 0 C35.39383938 0.02399685 35.39383938 0.02399685 36.50878906 1.13894653 C36.59718577 3.51463173 36.62409211 5.86103327 36.60644531 8.23660278 C36.60503036 8.94546127 36.60361542 9.65431976 36.60215759 10.38465881 C36.59654349 12.65696366 36.58398869 14.92917129 36.57128906 17.20144653 C36.56627588 18.73855449 36.56171265 20.27566398 36.55761719 21.81277466 C36.54656949 25.58820295 36.52929548 29.36355824 36.50878906 33.13894653 C35.18878906 32.80894653 33.86878906 32.47894653 32.50878906 32.13894653 C32.61707031 33.602677 32.61707031 33.602677 32.72753906 35.09597778 C32.82035156 36.36828247 32.91316406 37.64058716 33.00878906 38.95144653 C33.10160156 40.21601685 33.19441406 41.48058716 33.29003906 42.78347778 C33.61403511 47.75334575 33.15383455 52.22047471 32.50878906 57.13894653 C35.47878906 57.13894653 38.44878906 57.13894653 41.50878906 57.13894653 C41.50878906 57.46894653 41.50878906 57.79894653 41.50878906 58.13894653 C38.20878906 58.13894653 34.90878906 58.13894653 31.50878906 58.13894653 C31.45942266 50.78828924 31.42308533 43.43772803 31.39892578 36.08694458 C31.38885619 33.58529988 31.37519973 31.08366698 31.35791016 28.58206177 C31.33370414 24.99031668 31.3223156 21.39872694 31.31347656 17.80691528 C31.30315399 16.68496262 31.29283142 15.56300995 31.28219604 14.40705872 C31.28196945 12.84577995 31.28196945 12.84577995 31.28173828 11.25296021 C31.27729706 10.33584763 31.27285583 9.41873505 31.26828003 8.47383118 C31.50878906 6.13894653 31.50878906 6.13894653 33.50878906 3.13894653 C20.96878906 3.13894653 8.42878906 3.13894653 -4.49121094 3.13894653 C-4.16121094 12.37894653 -3.83121094 21.61894653 -3.49121094 31.13894653 C-4.81121094 31.46894653 -6.13121094 31.79894653 -7.49121094 32.13894653 C-7.51586597 27.74238481 -7.53404936 23.34585933 -7.54614258 18.94924927 C-7.55118215 17.45249735 -7.55801381 15.95575038 -7.56665039 14.45901489 C-7.57873253 12.31194846 -7.58444285 10.16494691 -7.58886719 8.01785278 C-7.594104 6.72435913 -7.59934082 5.43086548 -7.60473633 4.09817505 C-7.39778197 -1.29643531 -4.75660224 0.01790131 0 0 Z " fill="#06144C" transform="translate(85.4912109375,22.861053466796875)"/>
<path d="M0 0 C1.22705821 13.39538542 1.22705821 13.39538542 -1.67578125 17.19140625 C-3.8125 18.6875 -3.8125 18.6875 -5.95703125 19.82421875 C-8.15769937 20.86646272 -8.15769937 20.86646272 -9.25 23.12890625 C-11 25 -11 25 -14.79296875 25.390625 C-16.25832231 25.36410276 -17.72341551 25.31649117 -19.1875 25.25 C-19.93708984 25.23195313 -20.68667969 25.21390625 -21.45898438 25.1953125 C-23.3065371 25.14824109 -25.15343159 25.07649766 -27 25 C-22.86808719 13.83997382 -14.12890301 6.39910947 -3.8828125 0.84765625 C-2 0 -2 0 0 0 Z " fill="#D3D5DD" transform="translate(83,55)"/>
<path d="M0 0 C12.54 0 25.08 0 38 0 C38 8.91 38 17.82 38 27 C37.67 27 37.34 27 37 27 C36.67 19.41 36.34 11.82 36 4 C25.44 4 14.88 4 4 4 C4 20.83 4 37.66 4 55 C-0.29 55 -4.58 55 -9 55 C-6.72920696 49.32301741 -6.72920696 49.32301741 -3.5625 46.6875 C-2.96566406 46.17574219 -2.36882812 45.66398437 -1.75390625 45.13671875 C0 44 0 44 3 44 C2.67 38.39 2.34 32.78 2 27 C1.34 27 0.68 27 0 27 C0 18.09 0 9.18 0 0 Z " fill="#4D597C" transform="translate(81,26)"/>
<path d="M0 0 C3.96 0 7.92 0 12 0 C12 0.33 12 0.66 12 1 C8.37 1 4.74 1 1 1 C1.495 5.95 1.495 5.95 2 11 C3.65 10.01 5.3 9.02 7 8 C5.63016497 11.16115776 5.0109362 11.9927092 2 14 C1.77862607 16.62697064 1.71837975 19.00893964 1.8125 21.625 C1.82603516 22.33140625 1.83957031 23.0378125 1.85351562 23.765625 C1.8888896 25.51074128 1.94269779 27.25546608 2 29 C3.32 29.33 4.64 29.66 6 30 C4.02 30.99 4.02 30.99 2 32 C1.67 46.85 1.34 61.7 1 77 C2.32 77.33 3.64 77.66 5 78 C5.02465622 82.25414623 5.04283899 86.50825498 5.05493164 90.76245117 C5.05997101 92.21070073 5.06680253 93.65894517 5.07543945 95.10717773 C5.08752247 97.18474588 5.09323211 99.26224697 5.09765625 101.33984375 C5.10289307 102.59144287 5.10812988 103.84304199 5.11352539 105.13256836 C5 108 5 108 4 109 C0.97022196 109.08871273 -2.03667022 109.1151935 -5.06640625 109.09765625 C-5.97502914 109.0962413 -6.88365204 109.09482635 -7.81980896 109.09336853 C-10.73407221 109.08775193 -13.64825981 109.07519665 -16.5625 109.0625 C-18.53320202 109.05748714 -20.50390524 109.05292386 -22.47460938 109.04882812 C-27.31643559 109.03777711 -32.15820495 109.02050138 -37 109 C-37 108.67 -37 108.34 -37 108 C-28.81353269 106.84863638 -20.68490646 106.88585017 -12.4375 106.9375 C-11.03320473 106.94252634 -9.6289077 106.94708724 -8.22460938 106.95117188 C-4.81636097 106.96288407 -1.4082036 106.97928628 2 107 C1.67 105.35 1.34 103.7 1 102 C0.67 102 0.34 102 0 102 C0 68.34 0 34.68 0 0 Z " fill="#01144C" transform="translate(117,110)"/>
<path d="M0 0 C3.96 0 7.92 0 12 0 C10.28630271 8.56848644 4.74176136 15.51378934 -2 21 C-6.23789148 23.77258663 -10.07250487 25.76812622 -15 27 C-15 22.38 -15 17.76 -15 13 C-14.01 13 -13.02 13 -12 13 C-9 16.33333333 -9 16.33333333 -9 19 C-8.34 19 -7.68 19 -7 19 C-7 18.34 -7 17.68 -7 17 C-5.68 17 -4.36 17 -3 17 C-3 16.67 -3 16.34 -3 16 C-3.61875 15.9175 -4.2375 15.835 -4.875 15.75 C-7 15 -7 15 -8.3125 13.1875 C-9.12291429 10.60890909 -9.0701386 9.46955061 -8 7 C-7.01 6.34 -6.02 5.68 -5 5 C-5 6.32 -5 7.64 -5 9 C-3.07977297 10.77409808 -3.07977297 10.77409808 -1 12 C-1 11.34 -1 10.68 -1 10 C-0.01 10 0.98 10 2 10 C-0.8684413 7.89767656 -0.8684413 7.89767656 -4 7 C-3.34 6.34 -2.68 5.68 -2 5 C-1.01 5 -0.02 5 1 5 C0.67 3.35 0.34 1.7 0 0 Z " fill="#E0DEE4" transform="translate(134,112)"/>
<path d="M0 0 C9.9 0 19.8 0 30 0 C30 0.66 30 1.32 30 2 C21.42 2 12.84 2 4 2 C4 12.23 4 22.46 4 33 C12.25 33 20.5 33 29 33 C29 33.99 29 34.98 29 36 C19.43 36 9.86 36 0 36 C0 24.12 0 12.24 0 0 Z " fill="#CDDBE1" transform="translate(24,78)"/>
<path d="M0 0 C9.9 0 19.8 0 30 0 C30 11.88 30 23.76 30 36 C20.43 36 10.86 36 1 36 C1.33 35.01 1.66 34.02 2 33 C9.92 32.67 17.84 32.34 26 32 C26.33 22.1 26.66 12.2 27 2 C18.42 2 9.84 2 1 2 C0.67 1.34 0.34 0.68 0 0 Z " fill="#EFF6F7" transform="translate(147,78)"/>
<path d="M0 0 C0.66 0 1.32 0 2 0 C2 7.59 2 15.18 2 23 C13.55 23 25.1 23 37 23 C37 15.41 37 7.82 37 0 C37.33 0 37.66 0 38 0 C38 8.58 38 17.16 38 26 C25.46 26 12.92 26 0 26 C0 17.42 0 8.84 0 0 Z " fill="#ECF5F8" transform="translate(81,190)"/>
<path d="M0 0 C2.49336211 3.74004317 2.25481228 6.62561609 2.1953125 10.94921875 C2.1924826 11.72183548 2.18965271 12.49445221 2.18673706 13.29048157 C2.17554878 15.75631243 2.15044703 18.22177906 2.125 20.6875 C2.11496843 22.36002079 2.10584289 24.03254728 2.09765625 25.70507812 C2.077316 29.80363838 2.03816585 33.90141185 2 38 C11.57 38 21.14 38 31 38 C31.33 38.66 31.66 39.32 32 40 C27.46102295 40.02465392 22.92208457 40.04283789 18.38305664 40.05493164 C16.83780234 40.0599714 15.29255284 40.0668032 13.74731445 40.07543945 C11.53074971 40.08752076 9.31424782 40.09323173 7.09765625 40.09765625 C6.05545677 40.10539818 6.05545677 40.10539818 4.99220276 40.11329651 C3.3277067 40.11349277 1.66334501 40.06189129 0 40 C-1.84276509 38.15723491 -1.12874411 35.57036241 -1.13894653 33.11865234 C-1.1369223 32.29574707 -1.13489807 31.4728418 -1.1328125 30.625 C-1.13376923 29.78533691 -1.13472595 28.94567383 -1.13571167 28.08056641 C-1.13639348 26.30175705 -1.13453917 24.52294523 -1.13037109 22.74414062 C-1.12502283 20.01166224 -1.13031605 17.27934824 -1.13671875 14.546875 C-1.13605797 12.8229163 -1.13477681 11.09895771 -1.1328125 9.375 C-1.13483673 8.55209473 -1.13686096 7.72918945 -1.13894653 6.88134766 C-1.11495054 1.11495054 -1.11495054 1.11495054 0 0 Z " fill="#10295D" transform="translate(22,76)"/>
<path d="M0 0 C3.63 0 7.26 0 11 0 C11 25.41 11 50.82 11 77 C10.67 77 10.34 77 10 77 C9.67 62.15 9.34 47.3 9 32 C4.71 29.69 0.42 27.38 -4 25 C-7.38671875 22.26953125 -7.38671875 22.26953125 -9.6875 19.8125 C-10.47511719 18.99394531 -11.26273438 18.17539063 -12.07421875 17.33203125 C-13.78109741 15.26508083 -14.94696749 13.44956761 -16 11 C-15.01 11 -14.02 11 -13 11 C-11.5625 12.72265625 -11.5625 12.72265625 -10 15.0625 C-4.91207996 21.92577937 2.06923992 26.03670156 10 29 C9.96679995 26.60054192 9.89948338 24.21011893 9.8125 21.8125 C9.80669922 21.13896484 9.80089844 20.46542969 9.79492188 19.77148438 C9.61805594 15.74287144 9.10193561 14.11941921 6.44921875 11.01171875 C5.64097656 10.34785156 4.83273438 9.68398437 4 9 C6.16874252 9.50603992 7.99967627 9.99983813 10 11 C10 7.7 10 4.4 10 1 C6.7 1 3.4 1 0 1 C0 0.67 0 0.34 0 0 Z " fill="#0B0C43" transform="translate(73,110)"/>
<path d="M0 0 C0.66 0 1.32 0 2 0 C2 1.65 2 3.3 2 5 C2.99 5.33 3.98 5.66 5 6 C5 6.99 5 7.98 5 9 C5.99 9 6.98 9 8 9 C8 10.65 8 12.3 8 14 C9.32 13.34 10.64 12.68 12 12 C10.125 17.75 10.125 17.75 9 20 C8.01 20 7.02 20 6 20 C5.67 20.66 5.34 21.32 5 22 C4.34 21.67 3.68 21.34 3 21 C3.33 19.68 3.66 18.36 4 17 C2.68 17 1.36 17 0 17 C0 15.68 0 14.36 0 13 C-0.99 13.33 -1.98 13.66 -3 14 C-6.0190678 8.68644068 -6.0190678 8.68644068 -5.9375 5.75 C-4.70891888 3.45664858 -3.38346353 2.92263104 -1 2 C-0.67 2.66 -0.34 3.32 0 4 C0 2.68 0 1.36 0 0 Z " fill="#B2B2BA" transform="translate(68,113)"/>
<path d="M0 0 C0.72960937 0.04189453 1.45921875 0.08378906 2.2109375 0.12695312 C2.95601562 0.14951172 3.70109375 0.17207031 4.46875 0.1953125 C6.3003465 0.25401752 8.13090403 0.34369556 9.9609375 0.43945312 C9.6309375 1.09945312 9.3009375 1.75945312 8.9609375 2.43945312 C5.3309375 2.43945312 1.7009375 2.43945312 -2.0390625 2.43945312 C-2.0390625 3.75945312 -2.0390625 5.07945313 -2.0390625 6.43945312 C-4.0190625 7.42945312 -4.0190625 7.42945312 -6.0390625 8.43945312 C-5.4409375 8.58382812 -4.8428125 8.72820312 -4.2265625 8.87695312 C-2.47755846 9.32669702 -0.75229227 9.86837653 0.9609375 10.43945312 C0.9609375 11.09945312 0.9609375 11.75945312 0.9609375 12.43945312 C-0.6890625 12.10945313 -2.3390625 11.77945313 -4.0390625 11.43945312 C-3.3790625 12.75945312 -2.7190625 14.07945313 -2.0390625 15.43945312 C-5.40187828 13.99824636 -7.5910043 12.14980327 -10.0390625 9.43945312 C-10.0390625 5.43945312 -10.0390625 5.43945312 -8.5546875 2.77148438 C-5.63154799 0.06167958 -3.92129033 -0.08912023 0 0 Z M-14.0390625 9.43945312 C-11.5640625 10.42945312 -11.5640625 10.42945312 -9.0390625 11.43945312 C-10.0290625 11.76945312 -11.0190625 12.09945312 -12.0390625 12.43945312 C-10.67582507 14.47942503 -10.67582507 14.47942503 -9.0390625 16.43945312 C-8.3790625 16.43945312 -7.7190625 16.43945312 -7.0390625 16.43945312 C-6.7090625 15.77945313 -6.3790625 15.11945313 -6.0390625 14.43945312 C-5.7090625 15.75945312 -5.3790625 17.07945313 -5.0390625 18.43945312 C-6.0290625 18.76945313 -7.0190625 19.09945312 -8.0390625 19.43945312 C-8.6990625 19.10945312 -9.3590625 18.77945313 -10.0390625 18.43945312 C-10.0390625 19.09945312 -10.0390625 19.75945312 -10.0390625 20.43945312 C-10.6990625 20.43945312 -11.3590625 20.43945312 -12.0390625 20.43945312 C-15.0390625 16.97791466 -15.0390625 16.97791466 -15.0390625 14.43945312 C-16.0290625 14.43945312 -17.0190625 14.43945312 -18.0390625 14.43945312 C-18.0390625 19.38945312 -18.0390625 24.33945313 -18.0390625 29.43945312 C-18.3690625 29.43945312 -18.6990625 29.43945312 -19.0390625 29.43945312 C-19.17432866 26.85436642 -19.27323903 24.2763656 -19.3515625 21.68945312 C-19.39345703 20.95984375 -19.43535156 20.23023438 -19.47851562 19.47851562 C-19.52734375 17.33007812 -19.52734375 17.33007812 -19.0390625 13.43945312 C-16.51953125 10.92382812 -16.51953125 10.92382812 -14.0390625 9.43945312 Z " fill="#C8CCD7" transform="translate(137.0390625,110.560546875)"/>
<path d="M0 0 C21.00917431 -0.19877676 21.00917431 -0.19877676 30 1 C30 4.3 30 7.6 30 11 C23.88012917 9.80002533 21.5450582 8.15644829 18 3 C18 2.34 18 1.68 18 1 C12.72 1 7.44 1 2 1 C2.99 3.31 3.98 5.62 5 8 C4.67 8.99 4.34 9.98 4 11 C3.34 10.01 2.68 9.02 2 8 C-0.47491114 7.66185252 -2.71351688 7.51127661 -5.1953125 7.48828125 C-5.90275604 7.47033005 -6.61019958 7.45237885 -7.33908081 7.43388367 C-9.60099303 7.37965558 -11.86269284 7.34584684 -14.125 7.3125 C-15.65758173 7.27933774 -17.19013538 7.2448491 -18.72265625 7.20898438 C-22.48161779 7.12392273 -26.240515 7.05717247 -30 7 C-30 6.67 -30 6.34 -30 6 C-15.15 5.505 -15.15 5.505 0 5 C0 3.35 0 1.7 0 0 Z " fill="#3F4773" transform="translate(53,110)"/>
<path d="M0 0 C12.54 0 25.08 0 38 0 C38 8.91 38 17.82 38 27 C37.67 27 37.34 27 37 27 C36.67 19.08 36.34 11.16 36 3 C25.11 3 14.22 3 3 3 C2.67 10.92 2.34 18.84 2 27 C1.34 27 0.68 27 0 27 C0 18.09 0 9.18 0 0 Z " fill="#EAF1F5" transform="translate(81,26)"/>
<path d="M0 0 C0.66 0 1.32 0 2 0 C3.3671875 1.42578125 3.3671875 1.42578125 4.875 3.3125 C6.58150154 5.44339328 7.79458931 6.88220176 10.1796875 8.25 C12 10 12 10 12.390625 13.57421875 C12.3641199 14.94585748 12.3165309 16.31721938 12.25 17.6875 C12.23195313 18.38939453 12.21390625 19.09128906 12.1953125 19.81445312 C12.14826213 21.54355436 12.07651873 23.27195205 12 25 C8.66177043 24.38550003 5.97790508 23.65439171 3 22 C3 21.01 3 20.02 3 19 C3.99 19 4.98 19 6 19 C6.99 15.535 6.99 15.535 8 12 C6.02 12.99 6.02 12.99 4 14 C4.33 12.02 4.66 10.04 5 8 C3.68 8.33 2.36 8.66 1 9 C1 7.68 1 6.36 1 5 C0.34 4.67 -0.32 4.34 -1 4 C-0.67 2.68 -0.34 1.36 0 0 Z " fill="#F5F6F8" transform="translate(71,114)"/>
<path d="M0 0 C3.96 0 7.92 0 12 0 C12 0.33 12 0.66 12 1 C8.37 1 4.74 1 1 1 C1.33 4.3 1.66 7.6 2 11 C3.65 10.01 5.3 9.02 7 8 C5.63016497 11.16115776 5.0109362 11.9927092 2 14 C1.77862607 16.62697064 1.71837975 19.00893964 1.8125 21.625 C1.83280273 22.68460938 1.83280273 22.68460938 1.85351562 23.765625 C1.8888896 25.51074128 1.94269779 27.25546608 2 29 C3.32 29.33 4.64 29.66 6 30 C4.02 30.99 4.02 30.99 2 32 C2.00523682 33.26779297 2.01047363 34.53558594 2.01586914 35.84179688 C2.19097687 82.22127705 2.19097687 82.22127705 1 102 C0.67 102 0.34 102 0 102 C0 68.34 0 34.68 0 0 Z " fill="#02033E" transform="translate(117,110)"/>
<path d="M0 0 C0.33 0 0.66 0 1 0 C1.33 12.87 1.66 25.74 2 39 C-4.001875 39.061875 -4.001875 39.061875 -10.125 39.125 C-11.37555176 39.14320801 -12.62610352 39.16141602 -13.91455078 39.18017578 C-14.91470215 39.1851709 -15.91485352 39.19016602 -16.9453125 39.1953125 C-17.96125488 39.20578613 -18.97719727 39.21625977 -20.02392578 39.22705078 C-23.28288429 38.97841818 -25.95115207 38.14878364 -29 37 C-29 36.67 -29 36.34 -29 36 C-19.43 36 -9.86 36 0 36 C0 24.12 0 12.24 0 0 Z " fill="#3C5077" transform="translate(177,78)"/>
<path d="M0 0 C0.33 0 0.66 0 1 0 C1.02505615 0.9286084 1.0501123 1.8572168 1.07592773 2.81396484 C1.17097932 6.25435804 1.27021707 9.69457713 1.37231445 13.13476562 C1.41566589 14.62462641 1.45734084 16.11453695 1.49731445 17.60449219 C1.55501215 19.74429327 1.61870755 21.88384385 1.68359375 24.0234375 C1.72025146 25.31169434 1.75690918 26.59995117 1.79467773 27.92724609 C1.79530675 30.9127682 1.79530675 30.9127682 3 33 C-6.57 33 -16.14 33 -26 33 C-25.67 32.01 -25.34 31.02 -25 30 C-17.08 29.67 -9.16 29.34 -1 29 C-0.67 19.43 -0.34 9.86 0 0 Z " fill="#E8EEF2" transform="translate(174,81)"/>
<path d="M0 0 C0.99 0 1.98 0 3 0 C6 3.33333333 6 3.33333333 6 6 C6.66 6 7.32 6 8 6 C8 5.34 8 4.68 8 4 C8.99 4.33 9.98 4.66 11 5 C11.33 5.99 11.66 6.98 12 8 C8.0949151 11.55007718 5.02265357 12.81819916 0 14 C0 9.38 0 4.76 0 0 Z " fill="#F8F8F8" transform="translate(119,125)"/>
<path d="M0 0 C-0.33 9.24 -0.66 18.48 -1 28 C-1.66 28 -2.32 28 -3 28 C-3 19.09 -3 10.18 -3 1 C-15.54 1 -28.08 1 -41 1 C-41 0.67 -41 0.34 -41 0 C-35.64333324 -0.16762152 -30.28651915 -0.32818051 -24.92944336 -0.48217773 C-23.10679417 -0.53557027 -21.28420059 -0.5908975 -19.46166992 -0.64819336 C-16.84305818 -0.73018093 -14.22432573 -0.80522482 -11.60546875 -0.87890625 C-10.78974899 -0.90594131 -9.97402924 -0.93297638 -9.1335907 -0.96083069 C-5.80145255 -1.04887557 -3.18862422 -1.06287474 0 0 Z " fill="#3A5476" transform="translate(122,25)"/>
<path d="M0 0 C0 3 0 3 -2 6 C-1.67 5.67 -1.34 5.34 -1 5 C0.32520503 4.31731862 1.65812182 3.6492959 3 3 C4 6 4 6 4.4375 9.5625 C4.66562518 13.05471588 4.66562518 13.05471588 7 15 C6.67 15.66 6.34 16.32 6 17 C2.76138697 15.55575365 0.38030837 13.74227753 -2.25 11.375 C-2.95640625 10.74335937 -3.6628125 10.11171875 -4.390625 9.4609375 C-4.92171875 8.97882813 -5.4528125 8.49671875 -6 8 C-4.44805246 4.67240077 -2.69378051 2.51419515 0 0 Z " fill="#ECEBF2" transform="translate(125,62)"/>
<path d="M0 0 C0 3.63 0 7.26 0 11 C-1.98 10.01 -3.96 9.02 -6 8 C-5.34 7.34 -4.68 6.68 -4 6 C-5.98 6 -7.96 6 -10 6 C-9.34 6.928125 -8.68 7.85625 -8 8.8125 C-6 12 -6 12 -6 15 C-10.39158329 13.5361389 -10.87947433 11.02168662 -13 7 C-11.54261898 6.01941648 -10.08406325 5.04057868 -8.625 4.0625 C-7.81289062 3.51722656 -7.00078125 2.97195312 -6.1640625 2.41015625 C-2.46537396 0 -2.46537396 0 0 0 Z " fill="#F0F2F6" transform="translate(83,55)"/>
<path d="M0 0 C3.67230705 3.07999946 4.56802365 5.2482602 5 10 C4.01 10.66 3.02 11.32 2 12 C4.97 12.33 7.94 12.66 11 13 C11.33 12.34 11.66 11.68 12 11 C12 11.99 12 12.98 12 14 C6.72 14 1.44 14 -4 14 C-3.34 13.67 -2.68 13.34 -2 13 C-2.66 11.02 -3.32 9.04 -4 7 C-3.34 6.401875 -2.68 5.80375 -2 5.1875 C0.3373846 3.12498166 0.3373846 3.12498166 0 0 Z " fill="#9FA4B4" transform="translate(133,66)"/>
<path d="M0 0 C0.66 0 1.32 0 2 0 C2.03758423 0.99181274 2.03758423 0.99181274 2.07592773 2.00366211 C2.19153102 4.98182305 2.31441754 7.9596392 2.4375 10.9375 C2.47681641 11.97841797 2.51613281 13.01933594 2.55664062 14.09179688 C2.59853516 15.08115234 2.64042969 16.07050781 2.68359375 17.08984375 C2.72025146 18.00628662 2.75690918 18.92272949 2.79467773 19.86694336 C2.77003864 21.9820728 2.77003864 21.9820728 4 23 C5.70563778 23.15740605 7.41727244 23.25093392 9.12890625 23.31640625 C10.16337891 23.35830078 11.19785156 23.40019531 12.26367188 23.44335938 C13.35228516 23.48267578 14.44089844 23.52199219 15.5625 23.5625 C16.65498047 23.60568359 17.74746094 23.64886719 18.87304688 23.69335938 C21.58189564 23.79982068 24.29083992 23.90183516 27 24 C27 24.33 27 24.66 27 25 C18.09 25 9.18 25 0 25 C0 16.75 0 8.5 0 0 Z " fill="#FDFEFB" transform="translate(25,88)"/>
<path d="M0 0 C3.96 0 7.92 0 12 0 C11.12686261 4.36568695 10.34897511 6.42547265 8 10 C6.68 9.34 5.36 8.68 4 8 C4 7.34 4 6.68 4 6 C3.01 5.67 2.02 5.34 1 5 C0.67 3.35 0.34 1.7 0 0 Z " fill="#F5F4F6" transform="translate(134,112)"/>
<path d="M0 0 C0.33 0 0.66 0 1 0 C1 13.53 1 27.06 1 41 C0.67 41 0.34 41 0 41 C0 36.05 0 31.1 0 26 C-1.7325 26.94875 -3.465 27.8975 -5.25 28.875 C-8.47442567 30.64075691 -11.69918209 32.38102741 -15 34 C-13.93521458 30.89999181 -13.04202519 30.02537809 -10.1796875 28.296875 C-7.11979167 26.86458333 -4.05989583 25.43229167 -1 24 C-0.67 16.08 -0.34 8.16 0 0 Z " fill="#090B44" transform="translate(83,29)"/>
<path d="M0 0 C3.3 0 6.6 0 10 0 C8.61869182 5.21827533 5.21402497 7.92661337 1 11 C0.67 11 0.34 11 0 11 C0 7.37 0 3.74 0 0 Z " fill="#E4E8EC" transform="translate(118,111)"/>
<path d="M0 0 C0.99 0.33 1.98 0.66 3 1 C-3.73414427 10.90420687 -9.97797301 18.07945224 -21 23 C-21.66 22.34 -22.32 21.68 -23 21 C-21.88625 20.525625 -20.7725 20.05125 -19.625 19.5625 C-10.96847436 15.21117361 -4.5928392 8.42020521 0 0 Z " fill="#211F5E" transform="translate(144,117)"/>
<path d="M0 0 C2.31 0 4.62 0 7 0 C7 0.66 7 1.32 7 2 C6.34 2 5.68 2 5 2 C5.14069196 4.12534659 5.28770921 6.25027529 5.4375 8.375 C5.51871094 9.55835937 5.59992188 10.74171875 5.68359375 11.9609375 C5.81084936 14.91518901 5.81084936 14.91518901 7 17 C4.69 17 2.38 17 0 17 C0 16.34 0 15.68 0 15 C0.66 15 1.32 15 2 15 C2 10.71 2 6.42 2 2 C1.34 2 0.68 2 0 2 C0 1.34 0 0.68 0 0 Z " fill="#484770" transform="translate(59,86)"/>
<path d="M0 0 C3.3 0 6.6 0 10 0 C10 3.3 10 6.6 10 10 C6.42110455 8.21055227 5.16084082 7.35364331 2.75 4.4375 C1.96882813 3.50744141 1.96882813 3.50744141 1.171875 2.55859375 C0 1 0 1 0 0 Z " fill="#EDF1F3" transform="translate(73,111)"/>
<path d="M0 0 C1.4540625 0.0309375 1.4540625 0.0309375 2.9375 0.0625 C3.2675 1.3825 3.5975 2.7025 3.9375 4.0625 C3.2775 4.0625 2.6175 4.0625 1.9375 4.0625 C1.9375 3.0725 1.9375 2.0825 1.9375 1.0625 C0.6175 1.3925 -0.7025 1.7225 -2.0625 2.0625 C-1.93215506 3.93303397 -1.93215506 3.93303397 -1.0625 6.0625 C-0.216875 6.701875 0.62875 7.34125 1.5 8 C3.9375 10.0625 3.9375 10.0625 4.375 12.6875 C3.9375 15.0625 3.9375 15.0625 1.9375 17.0625 C-1.1875 17.1875 -1.1875 17.1875 -4.0625 17.0625 C-4.3925 15.7425 -4.7225 14.4225 -5.0625 13.0625 C-2.7525 13.7225 -0.4425 14.3825 1.9375 15.0625 C1.9375 13.4125 1.9375 11.7625 1.9375 10.0625 C0.761875 9.629375 0.761875 9.629375 -0.4375 9.1875 C-3.0625 8.0625 -3.0625 8.0625 -5.0625 6.0625 C-4.33395709 0.0884481 -4.33395709 0.0884481 0 0 Z " fill="#302F51" transform="translate(140.0625,86.9375)"/>
<path d="M0 0 C0.99 0.33 1.98 0.66 3 1 C2.67 2.32 2.34 3.64 2 5 C4.31 5 6.62 5 9 5 C8.67 3.35 8.34 1.7 8 0 C8.99 0 9.98 0 11 0 C11.33 3.63 11.66 7.26 12 11 C10.68 10.67 9.36 10.34 8 10 C8.33 8.68 8.66 7.36 9 6 C6.69 6 4.38 6 2 6 C2.33 7.65 2.66 9.3 3 11 C1.35 11 -0.3 11 -2 11 C-1.34 10.67 -0.68 10.34 0 10 C0 6.7 0 3.4 0 0 Z " fill="#232251" transform="translate(96,54)"/>
<path d="M0 0 C9.48863141 4.04145412 16.75055088 10.87571615 23 19 C22.34 19.99 21.68 20.98 21 22 C20.4225 21.113125 19.845 20.22625 19.25 19.3125 C18.5012672 18.20747366 17.75128829 17.1032905 17 16 C16.46375 15.195625 15.9275 14.39125 15.375 13.5625 C11.19729196 9.05497291 5.86302203 4.95434068 0 3 C0 2.01 0 1.02 0 0 Z " fill="#201F5F" transform="translate(122,54)"/>
<path d="M0 0 C2.66666667 2.66666667 5.33333333 5.33333333 8 8 C8.33 7.01 8.66 6.02 9 5 C9 6.32 9 7.64 9 9 C7.68 9 6.36 9 5 9 C4.67 9.99 4.34 10.98 4 12 C1 7.25 1 7.25 1 5 C0.01 5 -0.98 5 -2 5 C-2.33 6.65 -2.66 8.3 -3 10 C-3.66 10 -4.32 10 -5 10 C-5 9.34 -5 8.68 -5 8 C-4.34 8 -3.68 8 -3 8 C-3.2475 7.4225 -3.495 6.845 -3.75 6.25 C-3.8325 5.5075 -3.915 4.765 -4 4 C-2.0625 1.75 -2.0625 1.75 0 0 Z " fill="#A09EA7" transform="translate(69,62)"/>
<path d="M0 0 C3.63 0 7.26 0 11 0 C11 9.57 11 19.14 11 29 C10.67 29 10.34 29 10 29 C9.98582031 27.97519531 9.97164062 26.95039063 9.95703125 25.89453125 C9.91010984 24.53381029 9.86186256 23.17313459 9.8125 21.8125 C9.80669922 21.13896484 9.80089844 20.46542969 9.79492188 19.77148438 C9.61805594 15.74287144 9.10193561 14.11941921 6.44921875 11.01171875 C5.64097656 10.34785156 4.83273438 9.68398437 4 9 C6.16874252 9.50603992 7.99967627 9.99983813 10 11 C10 7.7 10 4.4 10 1 C6.7 1 3.4 1 0 1 C0 0.67 0 0.34 0 0 Z " fill="#06083F" transform="translate(73,110)"/>
<path d="M0 0 C5.46875 3.7109375 5.46875 3.7109375 7 5 C7 5.66 7 6.32 7 7 C7.66 7 8.32 7 9 7 C9 7.66 9 8.32 9 9 C6.03 9 3.06 9 0 9 C0 6.03 0 3.06 0 0 Z " fill="#DDE2EA" transform="translate(118,71)"/>
<path d="M0 0 C0.33 0.99 0.66 1.98 1 3 C1.33 3.33 1.66 3.66 2 4 C2.66 4 3.32 4 4 4 C4 4.66 4 5.32 4 6 C4.99 6.33 5.98 6.66 7 7 C7 7.33 7 7.66 7 8 C3.04 8 -0.92 8 -5 8 C-3.375 2.25 -3.375 2.25 0 0 Z " fill="#F8F8F9" transform="translate(62,71)"/>
<path d="M0 0 C1.13199353 0.9080162 2.25532363 1.82683826 3.375 2.75 C4.00148438 3.26046875 4.62796875 3.7709375 5.2734375 4.296875 C7.08312318 6.08199481 8.00117455 7.67949644 9 10 C9.52078125 9.82597656 10.0415625 9.65195313 10.578125 9.47265625 C13.74079331 8.85542582 16.54507464 9.14905672 19.75 9.4375 C20.92046875 9.53933594 22.0909375 9.64117187 23.296875 9.74609375 C24.63492188 9.87177734 24.63492188 9.87177734 26 10 C26 10.33 26 10.66 26 11 C19.73 11 13.46 11 7 11 C7 10.01 7 9.02 7 8 C6.34 8 5.68 8 5 8 C2.375 5.6875 2.375 5.6875 0 3 C0 2.01 0 1.02 0 0 Z " fill="#0E0F49" transform="translate(120,70)"/>
<path d="M0 0 C0 2.64 0 5.28 0 8 C-2.64 8 -5.28 8 -8 8 C-6.77178324 4.87363007 -3.80145145 0 0 0 Z " fill="#ECF0F4" transform="translate(83,72)"/>
<path d="M0 0 C0.33 0.66 0.66 1.32 1 2 C0.06553465 4.03144641 -0.93224776 6.03533587 -2 8 C-2.99 8 -3.98 8 -5 8 C-5.33 8.66 -5.66 9.32 -6 10 C-6.66 9.67 -7.32 9.34 -8 9 C-7.67 8.401875 -7.34 7.80375 -7 7.1875 C-5.79212012 4.94613529 -5.79212012 4.94613529 -6 2 C-4.7934375 1.7834375 -4.7934375 1.7834375 -3.5625 1.5625 C-1.07896294 1.25864751 -1.07896294 1.25864751 0 0 Z " fill="#B9B9C1" transform="translate(79,125)"/>
<path d="M0 0 C0.99 0.33 1.98 0.66 3 1 C3.33 2.65 3.66 4.3 4 6 C2.54207116 6.05399736 1.08357288 6.09279177 -0.375 6.125 C-1.18710938 6.14820312 -1.99921875 6.17140625 -2.8359375 6.1953125 C-5 6 -5 6 -7 4 C-6.030625 3.525625 -5.06125 3.05125 -4.0625 2.5625 C-1.19522563 1.29806053 -1.19522563 1.29806053 0 0 Z " fill="#FAFAFA" transform="translate(140,73)"/>
<path d="M0 0 C4.7517398 0.43197635 6.92000054 1.32769295 10 5 C4.25 5.125 4.25 5.125 2 4 C1.67 5.65 1.34 7.3 1 9 C0.67 9 0.34 9 0 9 C0 6.03 0 3.06 0 0 Z " fill="#F6F5F9" transform="translate(119,56)"/>
<path d="M0 0 C0.33 0.99 0.66 1.98 1 3 C0.45730469 3.60328125 -0.08539063 4.2065625 -0.64453125 4.828125 C-1.35996094 5.62734375 -2.07539062 6.4265625 -2.8125 7.25 C-3.52019531 8.03890625 -4.22789063 8.8278125 -4.95703125 9.640625 C-6.74168935 11.7016833 -8.39759062 13.79605523 -10 16 C-10 11.47670782 -9.43569661 10.8002002 -6.6875 7.4375 C-5.76517578 6.29087891 -5.76517578 6.29087891 -4.82421875 5.12109375 C-3.28047149 3.32611567 -1.70410671 1.64118585 0 0 Z " fill="#1C1B5D" transform="translate(67,61)"/>
<path d="M0 0 C1.65 0.33 3.3 0.66 5 1 C6.2077558 4.62326739 5.54311128 5.64146369 4 9 C3.34 7.68 2.68 6.36 2 5 C1.34 5 0.68 5 0 5 C-0.66 5 -1.32 5 -2 5 C-2 5.66 -2 6.32 -2 7 C-2.66 6.67 -3.32 6.34 -4 6 C-2.68 4.02 -1.36 2.04 0 0 Z " fill="#8F8D9C" transform="translate(126,62)"/>
<path d="M0 0 C-0.66 0.66 -1.32 1.32 -2 2 C-0.35 2.99 1.3 3.98 3 5 C2.67 6.32 2.34 7.64 2 9 C1.5978125 8.0409375 1.5978125 8.0409375 1.1875 7.0625 C0.11332248 4.66868314 0.11332248 4.66868314 -3 4 C-3.33 4.66 -3.66 5.32 -4 6 C-7 2.25 -7 2.25 -7 0 C-4.3333581 -1.33332095 -2.83319697 -0.67102033 0 0 Z " fill="#A7A8B3" transform="translate(80,61)"/>
<path d="M0 0 C3 1 6 2 9 3 C9 3.66 9 4.32 9 5 C7.35 4.67 5.7 4.34 4 4 C4.66 5.32 5.32 6.64 6 8 C2.63408134 6.55746343 0.48952921 4.66735273 -2 2 C-1.34 1.34 -0.68 0.68 0 0 Z " fill="#727184" transform="translate(129,118)"/>
<path d="M0 0 C0.99 0.33 1.98 0.66 3 1 C2.67 1.66 2.34 2.32 2 3 C1.84777027 4.66565749 1.75082785 6.33656496 1.68359375 8.0078125 C1.64169922 8.99394531 1.59980469 9.98007813 1.55664062 10.99609375 C1.51732422 12.02863281 1.47800781 13.06117188 1.4375 14.125 C1.39431641 15.16527344 1.35113281 16.20554688 1.30664062 17.27734375 C1.2003712 19.85142528 1.09833417 22.42560508 1 25 C0.67 25 0.34 25 0 25 C-0.19585353 21.02119772 -0.3802867 17.04194844 -0.5625 13.0625 C-0.61857422 11.92619141 -0.67464844 10.78988281 -0.73242188 9.61914062 C-0.78076172 8.53955078 -0.82910156 7.45996094 -0.87890625 6.34765625 C-0.9260376 5.34742432 -0.97316895 4.34719238 -1.02172852 3.31665039 C-1 1 -1 1 0 0 Z " fill="#203755" transform="translate(119,187)"/>
<path d="M0 0 C4.62 0 9.24 0 14 0 C13.67 0.66 13.34 1.32 13 2 C9.37 2 5.74 2 2 2 C2 3.32 2 4.64 2 6 C0.35 6.33 -1.3 6.66 -3 7 C-2.690625 6.401875 -2.38125 5.80375 -2.0625 5.1875 C-0.89790296 2.91043228 -0.89790296 2.91043228 0 0 Z " fill="#9BA2AE" transform="translate(133,111)"/>
<path d="M0 0 C0 1.65 0 3.3 0 5 C-3.04386724 5.08226668 -5.07175348 4.97608217 -8 4 C-8 3.34 -8 2.68 -8 2 C-3.61016949 -1.20338983 -3.61016949 -1.20338983 0 0 Z " fill="#EEEDEE" transform="translate(142,97)"/>
<path d="M0 0 C3.20395416 0 5.09399739 0.74335022 8 2 C8.33 1.34 8.66 0.68 9 0 C9.33 1.32 9.66 2.64 10 4 C9.01 4.33 8.02 4.66 7 5 C6.34 4.67 5.68 4.34 5 4 C5 4.66 5 5.32 5 6 C4.34 6 3.68 6 3 6 C0 2.53846154 0 2.53846154 0 0 Z " fill="#787782" transform="translate(122,125)"/>
<path d="M0 0 C0.99 0.33 1.98 0.66 3 1 C2.34 1 1.68 1 1 1 C1.33 3.31 1.66 5.62 2 8 C2.66 7.34 3.32 6.68 4 6 C4.33 7.32 4.66 8.64 5 10 C3.35 11.32 1.7 12.64 0 14 C0 9.38 0 4.76 0 0 Z " fill="#A1A8B7" transform="translate(118,55)"/>
<path d="M0 0 C0.99 0.495 0.99 0.495 2 1 C2 1.66 2 2.32 2 3 C3.32 2.34 4.64 1.68 6 1 C5.67 2.65 5.34 4.3 5 6 C6.98 5.67 8.96 5.34 11 5 C9.68 6.32 8.36 7.64 7 9 C1.21538462 4.56923077 1.21538462 4.56923077 0.125 1.6875 C0.08375 1.130625 0.0425 0.57375 0 0 Z " fill="#E3E1EB" transform="translate(63,124)"/>
<path d="M0 0 C1.32 1.32 2.64 2.64 4 4 C3.67 4.66 3.34 5.32 3 6 C0.9375 6.625 0.9375 6.625 -1 7 C-1 7.99 -1 8.98 -1 10 C-1.99 9.67 -2.98 9.34 -4 9 C-2.84826645 6.53199953 -1.95216435 4.95216435 0 3 C0 2.01 0 1.02 0 0 Z " fill="#8F8D99" transform="translate(133,66)"/>
<path d="M0 0 C0.66 0.33 1.32 0.66 2 1 C2 2.32 2 3.64 2 5 C0.68 5 -0.64 5 -2 5 C-2.33 6.65 -2.66 8.3 -3 10 C-3.66 10 -4.32 10 -5 10 C-5 9.34 -5 8.68 -5 8 C-4.34 8 -3.68 8 -3 8 C-3.2475 7.4225 -3.495 6.845 -3.75 6.25 C-3.8325 5.5075 -3.915 4.765 -4 4 C-2.0625 1.75 -2.0625 1.75 0 0 Z " fill="#BBBAC6" transform="translate(69,62)"/>
<path d="M0 0 C-0.33 0.99 -0.66 1.98 -1 3 C-1.33 2.67 -1.66 2.34 -2 2 C-3.98 4.64 -5.96 7.28 -8 10 C-9 7 -9 7 -8.14453125 5.17578125 C-7.70496094 4.56089844 -7.26539062 3.94601563 -6.8125 3.3125 C-6.17248047 2.37857422 -6.17248047 2.37857422 -5.51953125 1.42578125 C-4 0 -4 0 0 0 Z " fill="#20245B" transform="translate(133,110)"/>
<path d="M0 0 C0.1546875 0.86625 0.1546875 0.86625 0.3125 1.75 C1.09792798 4.32049158 2.30504197 5.93657284 4 8 C3.67 8.66 3.34 9.32 3 10 C1.0625 9.3125 1.0625 9.3125 -1 8 C-1.875 5.5625 -1.875 5.5625 -2 3 C-1.34 2.01 -0.68 1.02 0 0 Z " fill="#F4F3F5" transform="translate(128,69)"/>
<path d="M0 0 C0.99 0 1.98 0 3 0 C6 4.22222222 6 4.22222222 6 7 C3.13275314 6.42655063 2.1385485 6.1385485 0 4 C0 2.68 0 1.36 0 0 Z " fill="#F9F7FA" transform="translate(67,67)"/>
<path d="M0 0 C0.66 0 1.32 0 2 0 C3.39300182 1.95890881 4.72245446 3.9639118 6 6 C6.99 7.485 6.99 7.485 8 9 C4.86493389 8.66410006 3.974751 7.97334828 1.75 5.625 C0 3 0 3 0 0 Z " fill="#1A1D5B" transform="translate(71,110)"/>
<path d="M0 0 C0.33 1.32 0.66 2.64 1 4 C-0.32 4.99 -1.64 5.98 -3 7 C-3.33 5.68 -3.66 4.36 -4 3 C-2.68 2.01 -1.36 1.02 0 0 Z " fill="#9996A3" transform="translate(66,115)"/>
<path d="M0 0 C0.99 0.33 1.98 0.66 3 1 C3 1.99 3 2.98 3 4 C3.99 4 4.98 4 6 4 C5.67 5.32 5.34 6.64 5 8 C4.67 7.34 4.34 6.68 4 6 C3.01 6.33 2.02 6.66 1 7 C0.34 6.34 -0.32 5.68 -1 5 C-0.625 2.375 -0.625 2.375 0 0 Z " fill="#7C7B86" transform="translate(70,118)"/>
<path d="M0 0 C0.33 0.66 0.66 1.32 1 2 C0.01 3.32 -0.98 4.64 -2 6 C-4.475 5.01 -4.475 5.01 -7 4 C-5.6875 2.5 -5.6875 2.5 -4 1 C-3.01 1 -2.02 1 -1 1 C-0.67 0.67 -0.34 0.34 0 0 Z " fill="#757485" transform="translate(79,125)"/>
<path d="M0 0 C2.5 2.3125 2.5 2.3125 5 5 C5 5.99 5 6.98 5 8 C2 7 2 7 0 4 C0 2.68 0 1.36 0 0 Z " fill="#FBF9FC" transform="translate(72,62)"/>
<path d="M0 0 C0.33 0.99 0.66 1.98 1 3 C0.01 3.99 -0.98 4.98 -2 6 C-2.99 5.67 -3.98 5.34 -5 5 C-3.35 3.35 -1.7 1.7 0 0 Z " fill="#F7F6FB" transform="translate(74,123)"/>
<path d="M0 0 C1.65 0.33 3.3 0.66 5 1 C5 1.66 5 2.32 5 3 C3.35 3.33 1.7 3.66 0 4 C0 2.68 0 1.36 0 0 Z " fill="#DCDBE5" transform="translate(132,72)"/>
<path d="M0 0 C0.66 0.66 1.32 1.32 2 2 C1.34 3.32 0.68 4.64 0 6 C-0.99 5.67 -1.98 5.34 -3 5 C-3 4.01 -3 3.02 -3 2 C-2.01 1.34 -1.02 0.68 0 0 Z " fill="#C4C5CE" transform="translate(127,65)"/>
<path d="M0 0 C0.33 0.99 0.66 1.98 1 3 C-0.32 4.32 -1.64 5.64 -3 7 C-3.99 6.67 -4.98 6.34 -6 6 C-4.02 4.02 -2.04 2.04 0 0 Z " fill="#302D67" transform="translate(67,61)"/>
<path d="M0 0 C4.875 4.75 4.875 4.75 6 7 C4.1875 6.8125 4.1875 6.8125 2 6 C0.25 3.4375 0.25 3.4375 -1 1 C-0.67 0.67 -0.34 0.34 0 0 Z " fill="#27256A" transform="translate(58,120)"/>
<path d="M0 0 C1.875 0.25 1.875 0.25 4 1 C5.25 3.0625 5.25 3.0625 6 5 C4.125 4.75 4.125 4.75 2 4 C0.75 1.9375 0.75 1.9375 0 0 Z " fill="#F7F7FA" transform="translate(125,123)"/>
<path d="M0 0 C1.32 0 2.64 0 4 0 C3.67 0.99 3.34 1.98 3 3 C2.34 2.67 1.68 2.34 1 2 C1.33 3.32 1.66 4.64 2 6 C1.01 5.34 0.02 4.68 -1 4 C-0.67 2.68 -0.34 1.36 0 0 Z " fill="#E1DFEB" transform="translate(138,88)"/>
</svg>
